<svg id="Layer_1" data-name="Layer 1" xmlns="http://www.w3.org/2000/svg" viewBox="0 0 70.48419 68.538"><defs><style>.cls-1{fill:#1d1d1b;}</style></defs><title>adidas-logo</title><g id="layer1"><g id="g3003"><path id="path2425" class="cls-1" d="M80.60136,35.98878a11.77781,11.77781,0,0,1-1.87356,2.716H22.84006a19.55041,19.55041,0,0,1-1.801-2.716H80.60136M76.433,41.55142A9.05224,9.05224,0,0,1,73.57182,44.064H27.79269a14.74387,14.74387,0,0,1-2.65787-2.51263H76.433m-6.3324,5.156A28.77243,28.77243,0,0,1,55.62036,52.546a30.67969,30.67969,0,0,1,.42119-5.83858H70.10062m15.71479-28.946c.4212,4.51692-1.0457,10.02145-3.81976,15.58408H61.40085a24.21446,24.21446,0,0,1,2.84667-3.8343c5.98382-7.015,15.17741-11.34312,21.56789-11.74978M45.87487,52.54595a29.17111,29.17111,0,0,1-14.39313-5.83857H45.67154a34.87422,34.87422,0,0,1,.20334,5.83858m4.9381.4212a25.63019,25.63019,0,0,1-4.44429-6.25978h8.8305A27.70123,27.70123,0,0,1,50.813,52.96715M40.31224,33.34545H19.64481c-2.78858-5.56264-4.16835-11.06717-3.76168-15.58408,6.33239.40666,15.5986,4.73478,21.58243,11.74978a31.12356,31.12356,0,0,1,2.84667,3.8343m19.41837,0H41.90985a28.45406,28.45406,0,0,1-.276-4.93812c0-9.74549,4.31358-19.83956,9.17906-24.35648,4.80739,4.51692,9.19359,14.611,9.19359,24.35648,0,1.801-.14524,3.34049-.276,4.93812" transform="translate(-15.40385 -4.05085)"/><path id="path2449" class="cls-1" d="M80.52875,72.58885c2.91929,0,5.35929-1.17643,5.35929-4.09572,0-1.67024-1.17643-2.78858-3.06453-3.28239-1.9462-.47928-4.4443-.40666-4.4443-1.67024.13073-.82787.90048-1.04571,2.07693-1.04571,1.81547,0,1.88809.97309,1.96071,1.61214h2.9919C85.1909,61.81216,83.31733,60.2,80.32541,60.2c-3.13715,0-4.9381,1.67023-4.9381,3.83429a3.24134,3.24134,0,0,0,1.67024,2.91929,12.8109,12.8109,0,0,0,3.06453.84238c1.30714.13073,2.49809.276,2.57072,1.17645,0,.62452-.62454,1.39429-2.01883,1.39429-2.01881,0-2.44-1.11835-2.44-1.87358H75.11136c.05809,2.42547,2.0769,4.09572,5.41739,4.09572" transform="translate(-15.40385 -4.05085)"/><path id="path2451" class="cls-1" d="M67.44278,72.58885a6.40846,6.40846,0,0,0,3.48572-1.0457v.76975h2.99192V60.34525H70.92849v.90048A5.85761,5.85761,0,0,0,67.44278,60.2a6.19475,6.19475,0,1,0,0,12.38883Zm-3.326-6.18715A3.53138,3.53138,0,0,1,67.588,62.916a3.45118,3.45118,0,0,1,0,6.89883,3.52769,3.52769,0,0,1-3.4712-3.4131" transform="translate(-15.40385 -4.05085)"/><path id="path2453" class="cls-1" d="M57.29061,56.235v5.01071A6.23309,6.23309,0,0,0,53.74679,60.2a6.19442,6.19442,0,1,0,0,12.38883,6.64747,6.64747,0,0,0,3.54382-1.0457v.76975H60.2099V56.235h-2.9193Zm-6.8843,10.16669a3.44227,3.44227,0,1,1,3.39858,3.4131,3.51818,3.51818,0,0,1-3.39858-3.4131" transform="translate(-15.40385 -4.05085)"/><path id="path2455" class="cls-1" d="M43.37677,72.3129h2.91929V60.34525H43.37677Zm0-13.086h2.91929V56.235H43.37677v2.9919" transform="translate(-15.40385 -4.05085)"/><path id="path2457" class="cls-1" d="M35.37413,72.58885a6.84594,6.84594,0,0,0,3.54382-1.0457v.76975h2.99191V56.235H38.91795v5.01071a6.23347,6.23347,0,1,0-3.54382,11.34312ZM31.961,66.4017a3.47907,3.47907,0,1,1,3.54382,3.4131A3.54639,3.54639,0,0,1,31.961,66.4017" transform="translate(-15.40385 -4.05085)"/><path id="path2459" class="cls-1" d="M21.591,72.58885a6.90383,6.90383,0,0,0,3.61643-1.0457v.76975h2.91929V60.34525H25.20744v.90048A6.46817,6.46817,0,0,0,21.591,60.2a6.19442,6.19442,0,0,0,0,12.38883ZM18.25053,66.4017a3.47907,3.47907,0,1,1,3.4131,3.4131,3.52067,3.52067,0,0,1-3.4131-3.4131" transform="translate(-15.40385 -4.05085)"/></g></g></svg>