<svg id="Layer_1" data-name="Layer 1" xmlns="http://www.w3.org/2000/svg" viewBox="0 0 73.31856 73.31915"><defs><style>.cls-1{fill:none;}.cls-2{fill:#fff;}</style></defs><title>sd-logo</title><circle class="cls-1" cx="36.66043" cy="36.65993" r="36.65943"/><path class="cls-2" d="M51.43675,63.07375A24.79273,24.79273,0,1,1,76.22932,38.28107,24.82085,24.82085,0,0,1,51.43675,63.07375Zm0-49.22569a24.43283,24.43283,0,1,0,24.43285,24.433,24.46076,24.46076,0,0,0-24.43285-24.433Z" transform="translate(-14.77726 -1.62142)"/><path class="cls-2" d="M51.43675,74.17977A36.11456,36.11456,0,0,1,25.89964,12.52823a36.11473,36.11473,0,0,1,51.074,51.07386,35.87905,35.87905,0,0,1-25.5369,10.57768Zm0-71.86951A35.75484,35.75484,0,1,0,87.19151,38.06539,35.79567,35.79567,0,0,0,51.43675,2.31026Z" transform="translate(-14.77726 -1.62142)"/><path class="cls-2" d="M24.103,40.96575l1.63565,1.08544.56395,2.789L25.217,46.47572l-1.08833.22017-.275-1.36057.53069-.10736.445-.67066-.33854-1.67323-.6704-.445-.92515.187-.445.67055.45109,2.23131-1.08555,1.63537-2.04053.41274L18.1396,46.49048l-.564-2.78873,1.08555-1.63569,1.02031-.20627.27518,1.36046-.46263.09345-.445.67077.33828,1.67334.67061.44494.925-.187.4452-.67066L20.97687,43.014l1.08539-1.63559Z" transform="translate(-14.77726 -1.62142)"/><path class="cls-2" d="M25.77121,33.64364l-.099,1.38442-5.48639,2.39137,5.28878.37757-.09874,1.38452-8.307-.59292.09885-1.38453,5.50018-2.39046L17.36532,34.435l.09891-1.38447Z" transform="translate(-14.77726 -1.62142)"/><path class="cls-2" d="M18.2414,29.42838l1.63447-4.7218,1.20681.41767-1.18055,3.41019,2.05935.71289,1.01235-2.925,1.21974.42231-1.01235,2.925,2.0593.71289L26.421,26.9722l1.32475.45846-1.63447,4.722Z" transform="translate(-14.77726 -1.62142)"/><path class="cls-2" d="M22.66892,19.65983l.78615-1.16072,8.04768,2.96853-.716,1.05726-1.59709-.612-1.22183,1.80444,1.1613,1.25567-.73166,1.08047Zm2.58764.98108,1.757,1.96082.78594-1.16083-2.47285-.9034Z" transform="translate(-14.77726 -1.62142)"/><path class="cls-2" d="M27.11692,13.99053l1.05763-.89885,2.13939,2.51723-.56341-3.85657,1.06812-.90772.6835,3.95468,5.29146,1.89687-1.16339.98867L31.63,16.25728l.11313,1.0332,1.82475,2.1472-1.05775.8988Z" transform="translate(-14.77726 -1.62142)"/><path class="cls-2" d="M34.53259,8.3746l4.51606-2.13843.54652,1.154L36.33349,8.9347l.93275,1.96953,2.79738-1.32459.55245,1.1665-2.79743,1.3248.93253,1.96948L42.0129,12.496l.6,1.2669L38.0966,15.90148Z" transform="translate(-14.77726 -1.62142)"/><path class="cls-2" d="M42.59229,5.05016l4.2236-.74609,1.46354,1.02411.39356,2.228-.90928,1.31646L49.75459,12.242l-1.4899.26315L46.2844,9.27483l-1.48979.26322.61323,3.47184-1.36692.24145Zm1.60827,1.1255.37185,2.10485,2.14591-.37906.63505-.87329-.1327-.75182-.7375-.504Z" transform="translate(-14.77726 -1.62142)"/><path class="cls-2" d="M57.97025,4.52883l4.31781,1.20772.76166,1.55358-1.55187,5.54729-1.57378.8858L55.727,12.54913Zm.993,1.60368-1.552,5.54729,2.24605.62821.72584-.43114,1.20766-4.31759-.38206-.7985Z" transform="translate(-14.77726 -1.62142)"/><path class="cls-2" d="M67.66555,8.09627,63.87009,15.5091l-1.26059-.64527,3.79589-7.41295Z" transform="translate(-14.77726 -1.62142)"/><path class="cls-2" d="M70.631,18.64154l-1.9504.22188L66.454,17.09171l-.22155-1.95034.69108-.86891,1.08641.86421-.33715.42355.09088.79967,1.33587,1.063.79972-.09095.58748-.73845-.09089-.79983-1.78112-1.41735-.22188-1.9503,1.29642-1.62922,1.95018-.22183,2.2266,1.77165L74.088,14.297l-.64811.81459-1.08619-.86426.294-.36922-.09122-.79972-1.33576-1.063-.79972.091-.58758.73861.09089.79962L71.70555,15.062l.222,1.9505Z" transform="translate(-14.77726 -1.62142)"/><path class="cls-2" d="M78.81209,19.874l-1.30347-1.62335-5.41127,4.34561-.86923-1.08234,5.41138-4.34545L75.33581,15.545l1.08223-.869,3.47628,4.329Z" transform="translate(-14.77726 -1.62142)"/><path class="cls-2" d="M81.44844,21.5l1.77183,3.90591L82.59205,27.078l-2.06032.93463-1.501-.55352-2.76948,2.76525-.62511-1.37795,2.63731-2.72055-.6251-1.37768-3.21056,1.45644-.57346-1.26391Zm-.69055,1.83747-1.94665.88308.90045,1.98466,1.00364.3981.69516-.31539.30518-.83945Z" transform="translate(-14.77726 -1.62142)"/><path class="cls-2" d="M85.00844,31.39567l-8.123,1.83662-.31213-1.38079,8.12279-1.83667Z" transform="translate(-14.77726 -1.62142)"/><path class="cls-2" d="M85.65013,35.94509l.07346,3.19174-1.12522,1.17836-1.33181.03069-.02973-1.27652.55519-.013.64157-.47274L84.39093,36.738l-.66746-.651-4.51019.10421-.44225.67675.04277,1.84539.46825.4474.76326-.01775.02951,1.27684-1.35993.03133-1.306-1.24711L77.338,36.1373l1.2468-1.32,5.75869-.13307Z" transform="translate(-14.77726 -1.62142)"/><path class="cls-2" d="M82.87637,48.28989,83.337,46.2594l-6.76789-1.53572.30688-1.35362,6.76811,1.53583.46076-2.03059,1.35362.30742-1.22862,5.41405Z" transform="translate(-14.77726 -1.62142)"/><path class="cls-2" d="M56.56616,40.12294l-4.26735,4.26787h-8.749L39.2801,40.12294V36.70862h4.268V38.373l1.7514,1.74991H50.5494L52.29881,38.373V35.47187l-1.751-1.75108H43.54814l-4.268-4.26739V23.05094l4.268-4.26745h8.75068l4.26735,4.26745v3.202H52.29881V24.80095l-1.74941-1.75H45.29953l-1.7514,1.75.00171,2.90249,1.74969,1.75h6.99928l4.26735,4.26739Z" transform="translate(-14.77726 -1.62142)"/><path class="cls-2" d="M46.26361,27.37763H60.04928l3.54344,3.96874-.00161,17.71191-3.92592,3.927H46.26361Zm4.26761,3.926V49.01583H57.702l1.79225-1.87823V33.35173L57.702,31.3036Z" transform="translate(-14.77726 -1.62142)"/><path class="cls-2" d="M45.63913,58.00625h.11137l-.2656.86794h-2.872l.03544-.11644h.07335a.558.558,0,0,0,.26439-.057.3455.3455,0,0,0,.14809-.13164,2.12816,2.12816,0,0,0,.11628-.32763l.66307-2.18361a1.59745,1.59745,0,0,0,.07576-.31886q0-.17963-.32635-.17975h-.10121L43.597,55.443h2.44709l.01261.77417h-.10629a1.13954,1.13954,0,0,0-.2-.45167.48278.48278,0,0,0-.25433-.17708,3.00843,3.00843,0,0,0-.5301-.02919h-.44536L44.078,57.02688h.248a1.15311,1.15311,0,0,0,.5363-.0988.92079.92079,0,0,0,.33913-.46044h.11639l-.4073,1.34614H44.794a1.27137,1.27137,0,0,0,.02775-.25792.57234.57234,0,0,0-.0518-.2886.22468.22468,0,0,0-.13783-.10233,1.47731,1.47731,0,0,0-.30887-.0216h-.2808l-.32133,1.06523a1.79216,1.79216,0,0,0-.0758.30625.196.196,0,0,0,.11762.19226,1.04857,1.04857,0,0,0,.40868.05571h.19991a1.46477,1.46477,0,0,0,.802-.18338A1.35292,1.35292,0,0,0,45.63913,58.00625Z" transform="translate(-14.77726 -1.62142)"/><path class="cls-2" d="M47.11188,58.31742a.62207.62207,0,0,1-.18109.43135.6888.6888,0,0,1-.53251.19611.57527.57527,0,0,1-.39093-.115.32957.32957,0,0,1-.13029-.24669.19126.19126,0,0,1,.03913-.12125.1207.1207,0,0,1,.10009-.0508q.13649,0,.13655.14425a.42536.42536,0,0,1-.01513.09367.13707.13707,0,0,0-.01022.04288.12546.12546,0,0,0,.07843.105.37359.37359,0,0,0,.18735.04438.49254.49254,0,0,0,.30854-.10758.35448.35448,0,0,0,.13917-.29737,1.27817,1.27817,0,0,0-.19472-.51882,1.468,1.468,0,0,1-.22776-.59954.52232.52232,0,0,1,.19237-.40986.64912.64912,0,0,1,.4376-.16713.515.515,0,0,1,.30753.09121.24932.24932,0,0,1,.12784.19472q0,.1341-.11137.1341-.08349,0-.12147-.14928a.20233.20233,0,0,0-.22005-.16446.4109.4109,0,0,0-.25059.0786.24337.24337,0,0,0-.10634.20488,1.06943,1.06943,0,0,0,.16964.47316,3.07385,3.07385,0,0,1,.2137.41756A.83118.83118,0,0,1,47.11188,58.31742Z" transform="translate(-14.77726 -1.62142)"/><path class="cls-2" d="M48.88311,56.80191l-.03555.11109H48.468L48.134,58.01886a4.12364,4.12364,0,0,0-.167.63238.13933.13933,0,0,0,.02668.09239.09428.09428,0,0,0,.07719.03175q.091,0,.23787-.17194a1.78716,1.78716,0,0,0,.263-.43275h.11147a1.74009,1.74009,0,0,1-.35308.57561.55071.55071,0,0,1-.36313.19856.25611.25611,0,0,1-.20616-.0911.34358.34358,0,0,1-.07715-.23021,3.33222,3.33222,0,0,1,.15681-.63249L48.1669,56.913h-.34913l.03535-.11109h.34672l.23279-.76669h.30373l-.23284.76669Z" transform="translate(-14.77726 -1.62142)"/><path class="cls-2" d="M48.8197,58.67927a.25652.25652,0,0,1,.07854-.18735.26569.26569,0,0,1,.37708,0,.26665.26665,0,1,1-.37842.37576A.26153.26153,0,0,1,48.8197,58.67927Z" transform="translate(-14.77726 -1.62142)"/><path class="cls-2" d="M53.25434,56.31206a1.08369,1.08369,0,0,1-.358.75289,9.5993,9.5993,0,0,1-1.26519.96579q-.33563.23112-.68023.48075.22206.01813.39906.01808.69378,0,.83881-.01583a.42554.42554,0,0,0,.23567-.093.96826.96826,0,0,0,.24038-.34014c.02118-.04523.04245-.068.06363-.068q.03625,0,.03624.04074a2.10969,2.10969,0,0,1-.15408.3674,1.55473,1.55473,0,0,0-.08629.19045,1.82857,1.82857,0,0,1-.12233.263q-.42649.009-.49433.00909-1.08371,0-1.35582-.01827l.04085-.11346a.47061.47061,0,0,1,.10442-.18124,1.86673,1.86673,0,0,1,.24466-.186,13.25713,13.25713,0,0,0,1.07924-.81148,2.34757,2.34757,0,0,0,.662-.79342,1.213,1.213,0,0,0,.11773-.49444.49524.49524,0,0,0-.1266-.35822.46357.46357,0,0,0-.34935-.13175.63087.63087,0,0,0-.54416.31074.43.43,0,0,0-.09067.2113c0,.02086.00759.03123.02278.03123h.13153a.11444.11444,0,0,1,.08607.04993.158.158,0,0,1,.04084.09977.21443.21443,0,0,1-.07035.15879.22592.22592,0,0,1-.161.068.20586.20586,0,0,1-.15174-.068.22075.22075,0,0,1-.06565-.15879.80908.80908,0,0,1,.26283-.54844.93582.93582,0,0,1,.712-.27674.80448.80448,0,0,1,.54866.15869A.61466.61466,0,0,1,53.25434,56.31206Z" transform="translate(-14.77726 -1.62142)"/><path class="cls-2" d="M55.85754,56.5209a2.69883,2.69883,0,0,1-.26743,1.13356,2.8295,2.8295,0,0,1-.65323.91136,1.21907,1.21907,0,0,1-.80679.37629.53226.53226,0,0,1-.458-.24712,1.123,1.123,0,0,1-.17226-.65527,2.86927,2.86927,0,0,1,.612-1.60051,1.447,1.447,0,0,1,1.129-.75717.53065.53065,0,0,1,.4536.2222A1.02328,1.02328,0,0,1,55.85754,56.5209Zm-.331-.36806q0-.39826-.30774-.39831-.44733,0-.91777,1.01423a6.43153,6.43153,0,0,0-.35725,1.00525,2.45171,2.45171,0,0,0-.08587.62468q0,.46193.33.46161a.58776.58776,0,0,0,.46814-.267,6.22658,6.22658,0,0,0,.8705-2.44045Z" transform="translate(-14.77726 -1.62142)"/><path class="cls-2" d="M57.71448,55.69112a.76692.76692,0,0,1-.06812.17281c-.01829.04244-.03624.08628-.05453.13162l-.916,2.4968a2.1923,2.1923,0,0,0-.08148.24124c0,.06041.05.08906.14948.08628h.32186c.04266,0,.06352.011.06352.033,0,.01711-.01968.02567-.05881.02567H55.64657c-.03625,0-.05411-.00855-.05411-.02567,0-.022.03754-.033.11313-.033h.23589a.267.267,0,0,0,.2176-.082,1.03774,1.03774,0,0,0,.10415-.2269L56.957,56.6352a3.86727,3.86727,0,0,0,.20413-.62671c0-.05742-.03316-.08609-.09987-.08609a1.97063,1.97063,0,0,0-.23995.036.46766.46766,0,0,1-.082.0092q-.04955,0-.04961-.03164,0-.03193.231-.07261a3.9637,3.9637,0,0,0,.7391-.195l.02748-.0092C57.70517,55.65914,57.71448,55.66984,57.71448,55.69112Z" transform="translate(-14.77726 -1.62142)"/><path class="cls-2" d="M60.26,56.5209a2.70007,2.70007,0,0,1-.2671,1.13356,2.83279,2.83279,0,0,1-.65323.91136,1.21933,1.21933,0,0,1-.8069.37629.53221.53221,0,0,1-.45787-.24712,1.12385,1.12385,0,0,1-.17248-.65527,2.8689,2.8689,0,0,1,.61217-1.60051,1.44707,1.44707,0,0,1,1.129-.75717.53059.53059,0,0,1,.45349.2222A1.02329,1.02329,0,0,1,60.26,56.5209Zm-.33073-.36806q0-.39826-.30753-.39831-.4475,0-.918,1.01423a6.44376,6.44376,0,0,0-.35715,1.00525,2.44762,2.44762,0,0,0-.086.62468q0,.46193.33009.46161a.588.588,0,0,0,.46814-.267,6.23357,6.23357,0,0,0,.8704-2.44045Z" transform="translate(-14.77726 -1.62142)"/><circle class="cls-2" cx="10.53286" cy="52.42226" r="1.00764"/><circle class="cls-2" cx="62.78568" cy="52.42226" r="1.00762"/><path class="cls-2" d="M49.05217,69.10125q.34749-.044.38424-.28166.03922-.2531-.40451-.32185a1.57958,1.57958,0,0,0-1.113.16852,1.33178,1.33178,0,0,0-.24283.20594c-.21787.15056-1.43986.8472-1.69746.99134q-.17674.0215-1.33405.37917a3.26607,3.26607,0,0,1-1.7383.23642q-.31461-.11965-.24016-.31469c.01908-.04983.08185-.09464.18852-.13366q1.561-.53685,1.7784-1.10555a.48154.48154,0,0,0-.31448-.7036,2.73551,2.73551,0,0,0-1.52311-.1018,6.115,6.115,0,0,0-.79015.17537.04308.04308,0,0,1-.0024-.03186,1.0181,1.0181,0,0,1,.18247-.23108.97514.97514,0,0,0,.194-.26037.47231.47231,0,0,0-.06052-.41371.60722.60722,0,0,0-.3334-.2175,2.9316,2.9316,0,0,0-1.18259.0632q-.92821.15943-.94307.15408l-.02994-.01112a1.114,1.114,0,0,1,.22294-.22423,1.00236,1.00236,0,0,0,.22856-.23835q.03994-.10521-.16515-.28635a1.10533,1.10533,0,0,0-.2916-.18039.96343.96343,0,0,0-.62869-.0169,14.88625,14.88625,0,0,1-3.55535.323,16.923,16.923,0,0,1-3.29594-.328c-.04459-.046-.03235-.10286.03732-.16948a3.4666,3.4666,0,0,1,.94937-.42333c.50963-.164,1.73986-.44943,1.91532-.52941q1.10441-.23916,1.85507-.33758,1.44523-.2778,2.90249-.56662a9.53373,9.53373,0,0,0,2.6802-.79759,1.53256,1.53256,0,0,0,.17306-.14371q.39289-.37773.13746-.64382a.71836.71836,0,0,0-.26818-.16413,6.185,6.185,0,0,0-2.17276-.18028q-5.52076.17019-6.99238.09475a37.78561,37.78561,0,0,1-4.62326-.3765c-.73663-.19644-3.226-1.15324-1.47135-2.761.07053-.0648.17264-.16617.31068-.29887q.20708-.19873.311-.29855a.80532.80532,0,0,0-.39414-1.2375,1.62728,1.62728,0,0,0-.51578-.05068.897.897,0,0,0-.47765.19707,2.47247,2.47247,0,0,0-.21877.18862A1.95757,1.95757,0,0,0,25.85,58.90531c-.02535.1281-.97407,3.11412,2.64938,3.76638a33.36773,33.36773,0,0,0,4.079.332c.4661.01176.92365.03593,1.35271.048a.08218.08218,0,0,1,.07886.03593.61875.61875,0,0,1-.1388.65334.74668.74668,0,0,1-.29711.19386.9509.9509,0,0,1-.40034.018.601.601,0,0,1-.35918-.122.28841.28841,0,0,0-.4605-.02406q-.11965.11484.05807.29961a1.36349,1.36349,0,0,0,.809.37886q.52.07843.53112.09c.00733.0076.00342.0262-.0122.056q-.02293.02229-.94915.301a3.26591,3.26591,0,0,0-1.28257.62115.43882.43882,0,0,0-.03422.70039,2.01158,2.01158,0,0,0,.85137.47146,19.028,19.028,0,0,0,3.2759.29694c2.02374.046,3.25075-.28967,3.43452-.20221s-.44237.53465-1.23531.918q-1.18949.57549-1.28107.81491-.057.14964.33207.29855a1.92313,1.92313,0,0,0,.23792.07378,4.70135,4.70135,0,0,0,1.16815-.47424q1.17449-.55753,1.314-.609a6.36108,6.36108,0,0,1,1.47606-.26892.94368.94368,0,0,1,.37367.05581c.06945.02652.09891.05486.08737.08479a2.272,2.272,0,0,1-.56389.48813,17.3074,17.3074,0,0,1-1.75119.94419.1827.1827,0,0,0-.1265.10586.37013.37013,0,0,0,.06464.32506.55969.55969,0,0,0,.26551.24786.59274.59274,0,0,0,.3094-.00085,8.2763,8.2763,0,0,0,1.14415-.47862q.85753-.40227,1.21033-.60629a2.57413,2.57413,0,0,1,.79791-.24637,1.62629,1.62629,0,0,1,.79352-.011q.14949.05742.104.17739-.04594.12-.622.41435c-.33288.18168-.99889.465-1.18591.61078a1.03213,1.03213,0,0,0-.33837.36838.41184.41184,0,0,0,.07811.42472,2.29375,2.29375,0,0,0,1.82855.42441,9.19648,9.19648,0,0,0,1.45883-.44655.96143.96143,0,0,0-.15938.4413.877.877,0,0,0,.26231.77075,1.485,1.485,0,0,0,.88276.42825,2.39432,2.39432,0,0,0,2.12287-.82421,1.48881,1.48881,0,0,0,.42322-.74573,1.35265,1.35265,0,0,0-.02272-.58715,1.54967,1.54967,0,0,0-.06641-.14842.33122.33122,0,0,1-.048-.16146.7099.7099,0,0,1,.0965-.30977A.92591.92591,0,0,1,49.05217,69.10125ZM34.83365,63.85551a1.12788,1.12788,0,0,0,.15606-.51573c-.00332-.21942-.0122-.3705-.0122-.3705s2.09678-.1127,2.95911-.12576q1.48629-.07281,2.22424-.09238a10.97011,10.97011,0,0,1,1.36052.00417,1.37655,1.37655,0,0,1,.81186.24273.19431.19431,0,0,1-.01272.05635,2.55961,2.55961,0,0,1-1.35688.39286q-1.06854.11517-3.18457.48151-1.68391.28468-2.37673.35019a1.007,1.007,0,0,1-.47552-.0324.74618.74618,0,0,1-.26892-.16413ZM47.3707,70.22017a2.00148,2.00148,0,0,1,.00834.472,1.07451,1.07451,0,0,1-.40275.71654,1.01032,1.01032,0,0,1-.807.18348.28328.28328,0,0,1-.268-.36558.61017.61017,0,0,1,.20327-.31769.69128.69128,0,0,0,.21526-.3967q.02212-.1426-.22183-.32624a.05063.05063,0,0,1-.02786-.05293,3.36316,3.36316,0,0,1,.65708-.42591,4.011,4.011,0,0,1,.733-.38163.0149.0149,0,0,1,.01363.01881c-.07758.29054-.11447.42569-.11148.4043A1.992,1.992,0,0,0,47.3707,70.22017Z" transform="translate(-14.77726 -1.62142)"/><path class="cls-2" d="M77.11726,58.51063a.07117.07117,0,0,0-.11324-.00738,10.3377,10.3377,0,0,0-.30208,1.38292,3.2655,3.2655,0,0,1-.60362,1.64736q-.25326.22166-.39019.06532a.29969.29969,0,0,1-.03068-.22947q.2563-1.6304-.1451-2.089a.533.533,0,0,0-.81919-.04342,2.64347,2.64347,0,0,0-.752,1.291,6.119,6.119,0,0,0-.21471.78079.88054.88054,0,0,1-.10083-.24241,1.1761,1.1761,0,0,0-.18659-.333.41916.41916,0,0,0-.37126-.11666.6764.6764,0,0,0-.37083.16981,2.674,2.674,0,0,0-.52278,1.05368c-.19526.59677-.27107.91981-.279.92676s-.0278-.138-.06908-.31512a.53777.53777,0,0,0-.1529-.27919.3571.3571,0,0,0-.3627-.01465,1.2513,1.2513,0,0,0-.53379.7437c-.13816.56983-.53091,1.99808-.74263,2.53326a3.34058,3.34058,0,0,1-.76154,1.37619c-.084.04694-.16253.00556-.23622-.12511-.08329-.14885.007-.53368.11656-1.31085a6.66463,6.66463,0,0,0,.14168-1.33608q-.08613-.15383-.30988-.02791a.426.426,0,0,0-.21182.29373.367.367,0,0,1-.14178.25471q-.06979.03929-.27856-.11923a.42892.42892,0,0,0-.50225.00642,4.55724,4.55724,0,0,0-.94108,1.36805,4.72981,4.72981,0,0,0-.34389.90035,11.68344,11.68344,0,0,0-.82945,1.19687q-.73139,1.16574-1.033,1.27384-.33235.11918-.47285-.273a2.96751,2.96751,0,0,1,.22444-1.273c.16265-.55828,1.69184-6.0397,1.69184-6.0397l-.59987-.048s-1.43531,4.99009-1.43157,5.00014a.30312.30312,0,0,1-.16265.2114c-.04032.01475-.12307-.06255-.325-.14927a.72982.72982,0,0,0-.52074-.02385,3.04959,3.04959,0,0,0-1.1574,1.04609,6.02389,6.02389,0,0,0-.7082,1.12l-.01561.00107a.32364.32364,0,0,0-.17066.13088q-1.77589,2.13854-2.32657,2.24488c-.14735.028-.28625-.003-.31886-.17088a.531.531,0,0,1,.00609-.27577,4.66514,4.66514,0,0,1,.696-1.29267.17885.17885,0,0,0,.06693-.16007q-.03914-.2045-.32689-.25567c-.19162-.03368-.29811-.10831-.32068-.2238a.60072.60072,0,0,1,.11239-.34805.59925.59925,0,0,0,.10629-.37982c-.0138-.07324-.08223-.14457-.20413-.21386a.46491.46491,0,0,0-.29351-.082q-.25182.04844-.33288.39071-.0619.27315-.10757.54321a4.38388,4.38388,0,0,1-.70809,1.114,18.62018,18.62018,0,0,1-1.75984,1.52043,2.70872,2.70872,0,0,1-1.17088.45959c-.29865.02288-.44943-.05122-.46749-.22166a.887.887,0,0,1,.12981-.51636.90842.90842,0,0,1,.11506-.06523,4.29616,4.29616,0,0,0,1.17259-.76637,1.62828,1.62828,0,0,0,.66168-1.31961c-.01637-.21311-.38581-.45584-1.26135.14382a3.66418,3.66418,0,0,0-.81673.8595c-.17376.23172-.34014.45915-.50353.68467-.148.10373-.31608.22263-.50631.35768-1.4064.86345-1.935.87426-1.96756.56875A9.53989,9.53989,0,0,1,52.24,69.06286c.41307-.493,1.30551-1.65719,1.72211-1.64383.05357.00182,5.87257-.03,6.27836-.00705q.35288-.00305.35961-.20959.004-.11773-.22027-.12532c-.06406-.00215-4.097.02288-4.86551-.024q-.94471-.06287-1.072-.08318-.41573-.04573-.40911-.25417a.28043.28043,0,0,1,.08565-.15729c.34367-.374,1.61538-1.80818,1.78465-2.05914a1.36523,1.36523,0,0,0,.25674-.50482q.00545-.15991-.25087-.16884c-.06436-.00192-.14457.001-.24091.008a.88433.88433,0,0,0-.45947.30261c-.12233.14435-1.932,2.49337-2.26124,2.74755a.8307.8307,0,0,1-.51647.09389c-.09624-.003-2.93773-.01882-3.0399-.00011s-.08281.00043-.08544.08907a.15915.15915,0,0,0,.107.1528,4.38326,4.38326,0,0,0,.94392.081s2.06358.09217,2.12239.09944a.10484.10484,0,0,1,.08415.11612.59411.59411,0,0,1-.12008.2345,7.967,7.967,0,0,1-1.64793,1.822q-.88907.6868-1.30187,1.05421c-.12066.081-.18114.13752-.18216.16873-.00154.04288.05106.06556.1581.069a.95305.95305,0,0,0,.44872-.23374,1.11674,1.11674,0,0,1,.401-.23546.09408.09408,0,0,1,.06357.018q-.1855.2669-.35458.53369a2.01945,2.01945,0,0,0-.3612.7423c-.00573.171-.03673.695.732.66584a1.52789,1.52789,0,0,0,.45157-.07367,7.11931,7.11931,0,0,0,1.93975-1.05775.69667.69667,0,0,0-.07731.32721.72267.72267,0,0,0,.87769.75246,3.90308,3.90308,0,0,0,1.92206-.72626,13.93808,13.93808,0,0,0,1.70446-1.47937q.47011-.57213.61121-.59976.22038-.04236.26914.20957.00305.01524-.42847.5725a1.24785,1.24785,0,0,0-.35874.93457.84152.84152,0,0,0,.33287.56416.87529.87529,0,0,0,.6651.12479A1.69678,1.69678,0,0,0,58.845,71.637a17.57355,17.57355,0,0,0,2.20029-2.29652,1.69259,1.69259,0,0,0,.00491,1.195c.15506.43253.80968.46932,1.21387.29662a1.96337,1.96337,0,0,0,.76048-.61078,7.16205,7.16205,0,0,1,.49754-.53626c.0201-.00737.03551.00428.04651.03433a.44135.44135,0,0,0,.30571.282.70182.70182,0,0,0,.45584-.01026,2.03138,2.03138,0,0,0,.709-.493,8.38269,8.38269,0,0,0,.93691-1.37575q.24717-.39956.40516-.68253c-.02287.11965-.17151.94023.17462,1.18359a.76645.76645,0,0,0,.86484-.00523,1.90462,1.90462,0,0,0,.58084-.55829,6.54343,6.54343,0,0,0,.342-.588,1.24166,1.24166,0,0,0,.27578.1867.54481.54481,0,0,0,.492.008,1.64365,1.64365,0,0,0,.43765-.43445,16.45759,16.45759,0,0,0,.90462-2.02514c.133-.35009.51166-1.8857.60031-1.96313.0401-.0355.07452-.03667.10243-.00459a3.21793,3.21793,0,0,1,.13206,1.52556,3.30672,3.30672,0,0,0,.12083,1.51295q.10538.12077.41938-.15334a1.93126,1.93126,0,0,0,.17632-.17611,4.69887,4.69887,0,0,0,.12735-1.25418q.05517-1.29936.076-1.44666a6.34019,6.34019,0,0,1,.45232-1.43039c.06074-.12533.16317-.36688.29534-.36079.13173.006.34773.16789.34773.59347,0,.426-.09474,1.87864-.12007,2.14211a.18364.18364,0,0,0,.035.16114.371.371,0,0,0,.31726.09506.56076.56076,0,0,0,.34335-.11934.59082.59082,0,0,0,.144-.27352c.03946-.133.15228-2.31705.14136-2.58866a2.604,2.604,0,0,1,.15558-.82068,1.62209,1.62209,0,0,1,.36175-.70606c.07987-.07046.14841-.07367.20487-.00941a1.66008,1.66008,0,0,1,.07581.7437c.00514.37928-.01048.47-.0156.944a1.38944,1.38944,0,0,0,.1559.83982.6137.6137,0,0,0,.42441.15109.84456.84456,0,0,0,.49936-.16927,2.36832,2.36832,0,0,0,.49787-.66575,4.65532,4.65532,0,0,0,.34731-1.10961A6.24268,6.24268,0,0,0,77.11726,58.51063ZM54.48884,69.75021q.40115-.42424.60907-.44045c.01807-.0015.08041-.02031.08373.04171a1.45268,1.45268,0,0,1-.54332.78144,1.00218,1.00218,0,0,1-.46909.27716c-.04267.003-.065-.01122-.06758-.04309Q54.08674,70.17483,54.48884,69.75021Zm9.2602-2.04439c-.028.23877-.05764.33854-.09581.564a4.10847,4.10847,0,0,1-.312.85159,3.34756,3.34756,0,0,1-.80967,1.03764.28053.28053,0,0,1-.284.00834.39721.39721,0,0,1-.17526-.20284,1.99763,1.99763,0,0,1,.02737-.885,4.10886,4.10886,0,0,1,.22584-.78218,2.66229,2.66229,0,0,1,.518-.92142,1.3808,1.3808,0,0,1,.38494-.31106.46363.46363,0,0,1,.32283.01732,1.01539,1.01539,0,0,1,.17578.23236A.90141.90141,0,0,1,63.749,67.70583Zm4.60524-1.28711a3.15067,3.15067,0,0,1-.27342.72423,1.31017,1.31017,0,0,1-.41723.56587.23381.23381,0,0,1-.35714-.11163,2.04159,2.04159,0,0,1,.01775-1.47231,2.00581,2.00581,0,0,1,.71022-1.25514.17737.17737,0,0,1,.26989.08715A2.512,2.512,0,0,1,68.35428,66.41872Z" transform="translate(-14.77726 -1.62142)"/></svg>