<svg id="Layer_1" data-name="Layer 1" xmlns="http://www.w3.org/2000/svg" viewBox="0 0 65.22703 65.22703"><defs><style>.cls-1{fill:#010101;}.cls-2{fill:#fff;}.cls-3{fill:#fafafa;}</style></defs><title>sd-logo_clean</title><circle class="cls-1" cx="32.61352" cy="32.61352" r="32.61352"/><circle class="cls-2" cx="55.42332" cy="46.45465" r="0.88524"/><path class="cls-2" d="M74.51389,56.30619a.06161.06161,0,0,0-.09846-.00235.27977.27977,0,0,0-.06333.17577q-.14433,1.0607-.305,1.98311a1.58113,1.58113,0,0,1-.42623.906.22483.22483,0,0,1-.15931.075l-.02943-.01051a3.64763,3.64763,0,0,1-.06284-1.05593,2.03791,2.03791,0,0,0-.21646-1.21747.61737.61737,0,0,0-.38493-.172.459.459,0,0,0-.39184.10377,2.13055,2.13055,0,0,0-.52321,1.03676,3.78912,3.78912,0,0,1-.2303.758.03695.03695,0,0,1-.05912-.0015.51145.51145,0,0,1-.05419-.20816.45009.45009,0,0,0-.08287-.2386.43154.43154,0,0,0-.26321-.11479.31074.31074,0,0,0-.26767.06234.50042.50042,0,0,0-.12393.23353,3.24358,3.24358,0,0,0-.026.65963,6.75012,6.75012,0,0,1-.16574.8516,16.50133,16.50133,0,0,1-.65159,1.9564,2.35235,2.35235,0,0,1-.67064.863q-.3195.22432-.44751.04181a1.552,1.552,0,0,1-.10093-.33756.54612.54612,0,0,1-.03167-.1055.83728.83728,0,0,1,.05739-.09993,4.04862,4.04862,0,0,0,.52716-1.12806,1.345,1.345,0,0,0-.08287-1.24468q-.16029-.22785-.354-.09166a2.45586,2.45586,0,0,0-.4757.7769,3.01688,3.01688,0,0,0-.27732.98668c-.02746.25381-.05121.50093-.07335.74485a6.50759,6.50759,0,0,1-1.24716,2.1016.38067.38067,0,0,1-.53656-.1013l-.05715-.11181q-.04416-.08665.23353-.40063.33952-.37646.3582-.40174a3.19444,3.19444,0,0,0,.36637-.90652,1.443,1.443,0,0,0-.16327-.93337q-.3039-.59574-.67633-.40557a.22506.22506,0,0,1-.06852.01918l-.07422.03808a.73723.73723,0,0,0-.20533.14942q-.01262.00631-.23105.252a2.75658,2.75658,0,0,1-.24367.25827c-.025.01272-.04576.0026-.06259-.03031a6.80056,6.80056,0,0,1,.30231-1.49194,4.66595,4.66595,0,0,0,.143-1.06868.85408.85408,0,0,0-.02029-.285q-.05677-.11114-.28.00272a1.33349,1.33349,0,0,0-.30229.35771.94279.94279,0,0,0-.12494.353.941.941,0,0,1-.12492.35313,2.98944,2.98944,0,0,0-.20211,1.19806,4.97505,4.97505,0,0,1-.1692,1.3847q-.11578.35623-.1702.52469c-.13371.3112-.17836.427-.272.65629a2.04865,2.04865,0,0,0-.24306.29167q-1.28872,2.0429-1.75144,2.19659-.18516.0616-.25529-.15015a1.05462,1.05462,0,0,1-.03947-.22895,1.65543,1.65543,0,0,1,.15263-.57924,2.9568,2.9568,0,0,1,.276-.58356.15481.15481,0,0,0,.03983-.14534q-.05715-.17162-.31047-.1833c-.169-.00718-.2694-.05962-.30156-.15647a.52093.52093,0,0,1,.05764-.31294.5225.5225,0,0,0,.04874-.33915q-.03079-.09239-.20037-.161a.402.402,0,0,0-.262-.03773.38867.38867,0,0,0-.24281.37416q-.02227.2425-.0313.48029a3.12926,3.12926,0,0,1-.33544.7847c-.01559.02783-.12456.13791-.16538.19295a16.48489,16.48489,0,0,1-1.34437,1.56368,2.358,2.358,0,0,1-.9477.54435q-.38055.08665-.43-.13074a1.55556,1.55556,0,0,1,.03451-.35078.54638.54638,0,0,1,.01076-.10958.7937.7937,0,0,1,.091-.07075,4.05255,4.05255,0,0,0,.91518-.84431,1.3445,1.3445,0,0,0,.39506-1.183q-.06178-.27163-.29277-.21906a2.44883,2.44883,0,0,0-.73472.53867,3.01794,3.01794,0,0,0-.63056.80807c-.12741.23538-.24875.46569-.36687.6934-.05071.03983-.10415.08214-.16364.12975a1.68047,1.68047,0,0,1-.82575.44454q-.06976.00167-.21905-.13421a.9131.9131,0,0,1-.161-.62338.89638.89638,0,0,1,.09647-.33668.94662.94662,0,0,0,.09759-.295.25183.25183,0,0,0-.14459-.21955.53824.53824,0,0,0-.28052-.07706.74641.74641,0,0,0-.427.211q-.246.20724-.24206.37318a.64359.64359,0,0,0,.06839.24106.79971.79971,0,0,1,.0668.17169,2.39584,2.39584,0,0,0-.13309.26653,3.05473,3.05473,0,0,1-.66062.94438,1.76487,1.76487,0,0,1-.82452.49093q-.33434.00779-.33854-.1723c-.0005-.01843.04651-.202.04689-.2026a.61255.61255,0,0,1,.05466-.21571q.10445-.29352.17031-.46161a3.82033,3.82033,0,0,1,.51294-.70528,1.93317,1.93317,0,0,0,.40411-.59173q-.00762-.31855-.31393-.31145-.15344.00392-.72507.57467a3.36851,3.36851,0,0,0-.56823.72407c-.24367.3033-.40557.45666-.57.65456-.25778.32988-.469.59656-.76613.60349q-.25067.00592-.2543-.14732a.81093.81093,0,0,1,.15572-.49576c.17687-.37564.40731-.64157.468-.82909q.33747-.45363.5138-.66706a.23969.23969,0,0,0,.05207-.15461q-.007-.30612-.27185-.30007a1.05622,1.05622,0,0,0-.35982.10613,2.37944,2.37944,0,0,0-.45047.40074c-.117.09216-.22623.17886-.33186.26309-.24293.09313-1.08043.45468-1.7507.804a3.28545,3.28545,0,0,1-1.58446.54028q-.21967-.03787-.17712-.285a.72574.72574,0,0,1,.24936-.38121c.02826-.0275.05416-.05307.079-.07773a.15652.15652,0,0,0,.03858-.02987l.04182-.05136a1.58275,1.58275,0,0,0,.17-.19442c.05363-.07936.1-.14984.14035-.21282a1.08405,1.08405,0,0,0,.06695-.10112c.08773-.16742.24009-.25621.27958-.34845a8.95266,8.95266,0,0,1,.618-.807q.93683-1.33566,1.47884-1.34208l.22224-.00264c.10186-.00119.17581-.00213.22238-.00256q.27763-.00314.82663-.01582.54859-.0124.84052-.01588l.36126-.00429q.34688-.004.55546-.00125.3887.00318.33321.00353.125-.00124.47259-.01792,1.05654-.04666,1.58421-.04128.30553-.01517.31009-.176c.0016-.06138-.06257-.09146-.192-.08973q-.08338.0007-.27094.0031l-.2847.00313q-.16667.00206-.51336-.02524-.34639-.027-.527-.02512l-.125.00145q-.93179.04818-1.39072.07851l-.11111.00138q.02759-.00037-.97172-.01383-.81913-.01543-.92986-.02684-.36056-.02064-.35638-.18338a.21939.21939,0,0,1,.07277-.1259q.442-.45484.60024-.65682a2.79211,2.79211,0,0,1,.58528-.61924,1.75663,1.75663,0,0,0,.34345-.39139,1.05852,1.05852,0,0,0,.21862-.40254q.00314-.125-.219-.12249-.08331.001-.20858.01461a.81091.81091,0,0,0-.39536.25229q-.15751.17519-.31456.35015a5.52468,5.52468,0,0,0-.85972,1.02465,2.58812,2.58812,0,0,1-.70068.78753.798.798,0,0,1-.44692.09183q-.125.00172-.37488.00452-.25022.0028-.36128.00416-.153.00165-.44518.0312-.29235.029-.44512.03085a9.78,9.78,0,0,0-1.00783.03758q-.13278.02721-.13537.131-.002.07788.09423.11537a4.19639,4.19639,0,0,0,.81856.02936l.41671-.00483.20848-.00239c.09238-.001.16194-.00184.20822-.00245q.08355-.0009.26429-.00916c.12033-.00548.20842-.00876.264-.00934a1.63815,1.63815,0,0,1,.24936.0218q.15226.02336.22854.02861c.05061.0035.07561.0257.07469.067a.46854.46854,0,0,1-.10211.18718c-.3378.44319-.59858.81394-.842,1.09613a8.9034,8.9034,0,0,1-.73878.4975q-.42246.24212-.73373.42983a.46234.46234,0,0,0-.09857.02907q-1.00541.36753-1.896.65616a1.58409,1.58409,0,0,1-1.0004.046.22634.22634,0,0,1-.14063-.10612l-.00433-.03079a3.65017,3.65017,0,0,1,.90454-.54857q.87331-.456.97554-.75969a.61708.61708,0,0,0-.02758-.42092.45912.45912,0,0,0-.27472-.29809,2.13044,2.13044,0,0,0-1.16094.02139,3.77345,3.77345,0,0,1-.778.15017.037.037,0,0,1-.02621-.05307.51553.51553,0,0,1,.15894-.145.45252.45252,0,0,0,.17229-.18454.43311.43311,0,0,0-.02139-.28659.31061.31061,0,0,0-.18-.20743.49934.49934,0,0,0-.26444-.00049,3.24032,3.24032,0,0,0-.59545.28485c-.49018.21361-.92557.30626-1.10034.37775a9.17079,9.17079,0,0,1-1.76232.25826,13.71581,13.71581,0,0,1-2.33662-.1253q-.06344-.05417.01782-.14953a3.0172,3.0172,0,0,1,.78468-.44789,4.48861,4.48861,0,0,1,.8939-.31813,4.734,4.734,0,0,0,.7169-.3039q.93454-.30186,1.57507-.45147,1.22581-.36418,2.46129-.739a8.31409,8.31409,0,0,0,2.24942-.92014,1.41437,1.41437,0,0,0,.13717-.13927q.30706-.36031.06345-.56835a.38494.38494,0,0,0-.19369-.07372,5.52567,5.52567,0,0,0-1.94663-.01459q-4.75949.62135-6.03839.68251a12.482,12.482,0,0,1-2.56469-.08449,19.04925,19.04925,0,0,1-2.45906-.61609,6.39059,6.39059,0,0,1-2.17384-1.12235q-1.52658-1.30191-.33829-2.69545.08089-.095.24317-.285.16179-.19018.243-.28523a.83587.83587,0,0,0,.22524-.6647.40018.40018,0,0,0-.11689-.264,1.02407,1.02407,0,0,0-.55549-.10735q-.38146.00426-.45023.00049a.77506.77506,0,0,0-.39606.21163,2.05288,2.05288,0,0,0-.17316.18194,1.70075,1.70075,0,0,0-.46012.92593.704.704,0,0,1-.12677.33125.70565.70565,0,0,0-.12839.31156,2.113,2.113,0,0,0,.904,1.9246,11.46533,11.46533,0,0,0,5.17565,2.326,14.26163,14.26163,0,0,0,2.43049.24168q.65289.00743,1.07907.023a.09482.09482,0,0,1,.07113.024q.27552.23507-.09091.665a.64654.64654,0,0,1-.20706.16759.82779.82779,0,0,1-.34472.04985.52319.52319,0,0,1-.321-.07446.2507.2507,0,0,0-.40027.01843q-.09351.10984.07607.2543a1.18509,1.18509,0,0,0,.73212.258q.45641.0232.46705.032c.00693.00606.00506.02276-.00581.04984q-.018.02115-.795.34176a2.833,2.833,0,0,0-1.05556.64739.38083.38083,0,0,0,.03044.6083,1.74852,1.74852,0,0,0,.77664.33483,15.74107,15.74107,0,0,0,2.54565.10192c.46445-.03637,1.48861-.24726,1.48861-.24726a6.33938,6.33938,0,0,0,.64082-.17774q.69243-.267.70565-.26259a.04524.04524,0,0,1,.01311.04849,1.24171,1.24171,0,0,1-.28263.22845q-.30891.21967-.34867.25023-.73713.53154-1.12533.76835a.45229.45229,0,0,0-.20322.21089q-.07978.23767.39555.39754a.28074.28074,0,0,0,.29982-.0611,11.96584,11.96584,0,0,1,.993-.72433,2.60665,2.60665,0,0,1,.96157-.45592q.30854-.08721.59963-.16587a1.08429,1.08429,0,0,1,.59928-.03389q.23767.08.20224.18553a3.561,3.561,0,0,1-.96416.57255q-.9286.46737-1.01723.73114a.2275.2275,0,0,0,.01275.1807q.13972.45827.36439.53409a4.19628,4.19628,0,0,0,.98233.05084,3.37071,3.37071,0,0,0,.92136-.20483c.40286-.1441,1.84-.65753,1.8859-.64961a.08332.08332,0,0,1,.05269.02325q-.19147.20779-.36884.4172a1.75184,1.75184,0,0,0-.39927.5957.48513.48513,0,0,0,.14669.42116.71213.71213,0,0,0,.40411.23921,1.97438,1.97438,0,0,0,.39742-.0094,1.22228,1.22228,0,0,0,.37948-.06889q.40372-.12857.6125-.19148c.604-.30748,1.6306-.7545,2.021-.91814a.58076.58076,0,0,1,.285-.07125c.01843-.00024.12381-.055.14249-.05541.00408.004-.15746.22252-.15907.22487-.12294.16761-.29141.40187-.412.6057a1.166,1.166,0,0,0-.191.71122q.00372.16716.25753.28659a.86407.86407,0,0,0,.39221.08831,2.39113,2.39113,0,0,0,.50627-.10241,1.29624,1.29624,0,0,0,.4485-.18491,5.51006,5.51006,0,0,1,.54968-.46012s.13927.22337.25084.42041q.167.29557.37615.29067.06957-.00167.22326.00866c.10216.0068.17663.0099.22313.00865a1.05716,1.05716,0,0,0,.36747-.07829,3.55693,3.55693,0,0,0,.69217-.49018,4.77355,4.77355,0,0,0,.64121-.58654,1.49819,1.49819,0,0,1,.327-.31442q.04173-.00074.24887.21026a.60818.60818,0,0,0,.45777.20521,1.73875,1.73875,0,0,0,.95958-.43762.6857.6857,0,0,0-.04614.35981.62817.62817,0,0,0,.85049.53521,3.39422,3.39422,0,0,0,1.55959-.86966,7.90169,7.90169,0,0,0,.75439-.8479c.01744-.00012.2-.25962.52222-.62055.28535-.31961.41671-.54795.49611-.57429q.185-.0614.2553.15017.00445.01316-.30452.54164a1.0847,1.0847,0,0,0-.2036.84553.73046.73046,0,0,0,.38949.39915.69962.69962,0,0,0,.54844.08213,1.474,1.474,0,0,0,.43206-.2903,12.97632,12.97632,0,0,0,.83823-1.01251c.284-.40805.535-.74152.6991-1.00436,0,0,.17416-.26915.30081-.4433.11874-.12666.15275-.08448.17774-.09722.01633-.00841.03315.00409.05.037a.77518.77518,0,0,1,.00965.41758q-.09982.75476-.2078,2.01428c-.0295.30453-.13741.94363-.13741.94363l.62005-.2548.00452-.08655a25.77213,25.77213,0,0,1,.24459-2.57116q.07681-.46142.142-.917a4.6676,4.6676,0,0,1,.24813-.893,1.60766,1.60766,0,0,1,.57243-.8709q.17366-.0885.27508.11a1.22047,1.22047,0,0,1-.01089.9597q-.06086.1874-.447.96317-.25158.48832-.1692.64949.20261.39706.85.317a.80741.80741,0,0,0,.30478-.07731,3.23342,3.23342,0,0,0,.98012-1.29786c.07768-.13854.1812-.35661.30959-.65161a.65786.65786,0,0,0,1.07895.47349,3.3914,3.3914,0,0,0,1.11368-1.39583c.16588-.36254.4991-1.52125.4991-1.52125.13828-.38246.11763-.38444.24441-.755a5.9706,5.9706,0,0,1,.11639-.74474.04485.04485,0,0,1,.049.011,1.24664,1.24664,0,0,1,.07.35648q.0501.37589.05863.42512.12579.90022.15412,1.35378a.45272.45272,0,0,0,.09154.27831q.17329.18163.53632-.16439a.28067.28067,0,0,0,.08609-.29339,11.9134,11.9134,0,0,1-.17713-1.21649,2.604,2.604,0,0,1,.04576-1.06323q.0668-.31336.13309-.60768a1.08555,1.08555,0,0,1,.24986-.54572q.18146-.17293.25851-.09216a3.569,3.569,0,0,1,.05616,1.11988,2.218,2.218,0,0,0,.17167,1.241.22778.22778,0,0,0,.16574.073q.47052.09036.64245-.07285a4.19182,4.19182,0,0,0,.50342-.84516,3.356,3.356,0,0,0,.24911-.91036A6.22345,6.22345,0,0,0,74.51389,56.30619ZM58.31174,65.79432q.29091-.41634.46754-.45654l.0543-.01238a.05778.05778,0,0,1,.02288.0376.71011.71011,0,0,1-.05108.3404,1.79959,1.79959,0,0,1-.31615.4005,1.06038,1.06038,0,0,1-.36785.29821q-.05436.01224-.06357-.02844Q58.0207,66.21059,58.31174,65.79432Zm-18.86448-3.382a.61139.61139,0,0,0,.12741-.38566q-.03247-.28388.01286-.33694a.0939.0939,0,0,1,.0663-.035q1.30635-.22245,2.42307-.35079,1.27909-.19055,1.91546-.27076a9.542,9.542,0,0,1,1.1769-.1133A1.19812,1.19812,0,0,1,45.892,61.06a.16566.16566,0,0,1-.00592.05,2.2258,2.2258,0,0,1-1.13968.45616q-.91431.1911-2.71238.68994-1.43177.39055-2.02517.507-.33989.07645-.41411.01312a.36436.36436,0,0,0-.118-.0548.38127.38127,0,0,1-.12863-.06394Q39.30577,62.62105,39.44725,62.41227Zm29.19315-.45654c-.03042.02128-.05368.02066-.06976-.0021q-.09609-.13711.01559-.63242a1.07781,1.07781,0,0,1,.2595-.59977l.04576-.03192a.0564.0564,0,0,1,.03538.0261.70922.70922,0,0,1,.08164.33421,1.7923,1.7923,0,0,1-.14076.49042A1.06066,1.06066,0,0,1,68.64041,61.95573Z" transform="translate(-19.763 -5.93188)"/><g id="Boven_Sneaker_District" data-name="Boven Sneaker District"><path class="cls-2" d="M28.316,40.90715l1.43906.95514.4963,2.454-.95506,1.43912-.95766.19357-.24207-1.19707.46681-.09437.39166-.59L28.65729,42.595l-.59006-.39147-.814.1645-.39154.59.39692,1.96332-.95506,1.43912-1.7956.36315-1.43912-.95513-.49618-2.454.955-1.43912.8978-.18158.24212,1.19707-.40707.08225-.3916.59024.29779,1.47227.59006.3916.81394-.16463.39154-.59-.39686-1.9632.955-1.43912Z" transform="translate(-19.763 -5.93188)"/><path class="cls-2" d="M29.78372,34.46443l-.087,1.21821L24.8693,37.78672l4.65356.33224-.087,1.21821-7.30922-.52172.087-1.21822,4.83965-2.10333-4.66568-.3331.087-1.21822Z" transform="translate(-19.763 -5.93188)"/><path class="cls-2" d="M23.15825,30.7556l1.43814-4.15472,1.06181.36749-1.03868,3.0007,1.812.62722.89081-2.57373,1.07339.37156-.89087,2.57373,1.812.62711,1.03868-3.0007,1.16564.40347-1.4382,4.15485Z" transform="translate(-19.763 -5.93188)"/><path class="cls-2" d="M27.05409,22.16031l.69167-1.02142,7.081,2.61206-.63.93026-1.4053-.53854-1.07517,1.58768,1.02186,1.10491-.64374.95067Zm2.27686.86324,1.54575,1.72522.69162-1.02143-2.17575-.79483Z" transform="translate(-19.763 -5.93188)"/><path class="cls-2" d="M30.96792,17.17186l.93052-.79088,1.88236,2.2149-.49568-3.39335.93991-.79872.60132,3.47975,4.65591,1.66894-1.02371.87-3.51964-1.25607.09945.90912,1.60555,1.88923-.93063.79086Z" transform="translate(-19.763 -5.93188)"/><path class="cls-2" d="M37.49291,12.23054l3.97364-1.88163.48091,1.01549-2.8699,1.35891.82062,1.733,2.46148-1.16558.486,1.0265-2.46142,1.16565.82055,1.73289,2.8699-1.35886.52791,1.11481-3.97378,1.88163Z" transform="translate(-19.763 -5.93188)"/><path class="cls-2" d="M44.58438,9.30528l3.71637-.65642,1.28773.90107.34627,1.96036-.8,1.15829,1.75156,2.96477-1.31092.23154-1.74229-2.84232-1.311.23154.53966,3.05482-1.20269.21243Zm1.41514.99031.32722,1.85207,1.88818-.33346.55883-.76848-.11683-.66155-.6488-.44343Z" transform="translate(-19.763 -5.93188)"/><path class="cls-2" d="M58.11556,8.84671l3.79906,1.06261.67027,1.367-1.36541,4.881-1.38476.77943-3.69305-1.033Zm.87362,1.411-1.36547,4.88109,1.97613.55265.63867-.37924,1.06255-3.79905-.336-.70267Z" transform="translate(-19.763 -5.93188)"/><path class="cls-2" d="M66.64357,11.98421,63.30445,18.507l-1.109-.56768,3.33912-6.52282Z" transform="translate(-19.763 -5.93188)"/><path class="cls-2" d="M69.25539,21.26431l-1.71607.19518-1.95923-1.55892L65.385,18.18444l.60843-.76452.95562.76044-.29661.37268.08.70359,1.17542.93535.70355-.08.51714-.64987-.08-.70367-1.56728-1.2471L67.286,15.79532l1.14079-1.4335,1.71594-.19524L72.102,15.72549l.19518,1.71607-.57021.71677-.95562-.76044.25851-.32493-.08015-.70361L69.77415,15.434l-.70342.08-.51727.64987.08.7036,1.56739,1.2471L70.396,19.8308Z" transform="translate(-19.763 -5.93188)"/><path class="cls-2" d="M76.45411,22.34869,75.307,20.92033l-4.7613,3.82348-.76465-.95229,4.7613-3.8236-1.1471-1.42837.95216-.76465,3.05884,3.809Z" transform="translate(-19.763 -5.93188)"/><path class="cls-2" d="M78.77353,23.77953l1.55923,3.43671-.5529,1.47128-1.813.82241-1.32051-.48722-2.43692,2.4331-.54992-1.21228,2.32041-2.39377L75.43,26.6375,72.6049,27.919l-.50466-1.11221ZM78.166,25.39628l-1.71284.777.79236,1.74624.88313.3503.61152-.27744.26865-.73867Z" transform="translate(-19.763 -5.93188)"/><path class="cls-2" d="M81.90608,32.48651l-7.1475,1.616-.27459-1.215,7.14726-1.616Z" transform="translate(-19.763 -5.93188)"/><path class="cls-2" d="M82.47061,36.48959l.06481,2.80837-.99,1.03652-1.17208.02733-.026-1.12335.48833-.01125.56451-.41622-.03735-1.62391-.58753-.57281-3.9682.09165-.38937.59544.0376,1.62379.41213.3937.67163-.01558.02572,1.12347-1.19632.02759L75.21919,39.357l-.06234-2.69841L76.254,35.49711l5.06706-.117Z" transform="translate(-19.763 -5.93188)"/><path class="cls-2" d="M80.03,47.35137l.40546-1.78657-5.95515-1.35131.27014-1.191,5.95515,1.35131.40546-1.78657,1.19113.27039-1.08129,4.76389Z" transform="translate(-19.763 -5.93188)"/></g><path class="cls-2" d="M59.8391,28.95117H47.7094v1.82639h-.63725l-1.53968-1.53969-.00137-2.55393,1.541-1.53982h4.6193l1.5392,1.53982v1.27758h3.75495v-2.8174l-3.75495-3.75484H45.5311l-3.75533,3.75484v5.63343L45.5311,34.5324h2.1783v5.63312h-.63725l-1.541-1.53963V37.16141H41.77577v3.00411l3.7567,3.75545H47.7094v7.56211H59.50119l3.45439-3.45538.00148-15.58454ZM51.46435,34.5324H51.69l1.54068,1.54079v2.5527l-1.5392,1.53963h-.2271Zm7.88644,11.80546-1.577,1.65249h-6.3094V43.921h1.76629l3.75495-3.75545V34.5324L54.8587,32.40556h2.915l1.577,1.80215Z" transform="translate(-19.763 -5.93188)"/><g id="Est_2010" data-name="Est 2010"><path class="cls-2" d="M47.32936,55.90089h.098l-.23377.76366h-2.527l.03117-.10242h.06457A.49241.49241,0,0,0,44.995,56.512a.30218.30218,0,0,0,.13024-.11577,1.88755,1.88755,0,0,0,.10242-.28832l.58332-1.92139a1.4101,1.4101,0,0,0,.06679-.28053q0-.15807-.2872-.15807h-.08907l.03117-.10242h2.15294l.01113.68128h-.09351a1.00022,1.00022,0,0,0-.17589-.39741.42464.42464,0,0,0-.22375-.15585,2.65656,2.65656,0,0,0-.46643-.0256h-.39185l-.38961,1.29131h.21818a1.01591,1.01591,0,0,0,.472-.08684.81206.81206,0,0,0,.29834-.4052h.10242l-.35845,1.18445h-.10242a1.11733,1.11733,0,0,0,.02448-.2271.50341.50341,0,0,0-.04563-.25381.19808.19808,0,0,0-.12134-.09017,1.30045,1.30045,0,0,0-.27163-.01892H45.9245l-.28275.93732a1.58773,1.58773,0,0,0-.0668.26939.17244.17244,0,0,0,.10353.16921.92424.92424,0,0,0,.35957.049h.17588a1.29013,1.29013,0,0,0,.70578-.16141A1.18947,1.18947,0,0,0,47.32936,55.90089Z" transform="translate(-19.763 -5.93188)"/><path class="cls-2" d="M48.62512,56.17474a.54837.54837,0,0,1-.15918.37961.60637.60637,0,0,1-.46866.17255.50642.50642,0,0,1-.344-.1013.29044.29044,0,0,1-.11466-.21708.16921.16921,0,0,1,.03451-.10686.10664.10664,0,0,1,.08794-.04453q.12022,0,.12022.12691a.36777.36777,0,0,1-.01335.08238.12084.12084,0,0,0-.0089.03785.11049.11049,0,0,0,.069.0924.32989.32989,0,0,0,.16476.039.43366.43366,0,0,0,.27162-.09463.31219.31219,0,0,0,.12245-.2616,1.12429,1.12429,0,0,0-.17143-.45641,1.29281,1.29281,0,0,1-.20039-.52766.45973.45973,0,0,1,.16921-.36069.57113.57113,0,0,1,.38517-.14693.45374.45374,0,0,1,.2705.08015.21938.21938,0,0,1,.11243.17143q0,.118-.098.118-.07347,0-.10687-.13136a.17806.17806,0,0,0-.1937-.14472.361.361,0,0,0-.22041.069.21411.21411,0,0,0-.09351.18034.94082.94082,0,0,0,.14918.41634,2.71413,2.71413,0,0,1,.18813.36736A.73224.73224,0,0,1,48.62512,56.17474Z" transform="translate(-19.763 -5.93188)"/><path class="cls-2" d="M50.18361,54.84112l-.03117.098h-.334l-.29388.97293a3.60536,3.60536,0,0,0-.14695.55661.12343.12343,0,0,0,.02338.08126.08374.08374,0,0,0,.06791.02783q.08014,0,.20928-.15139a1.5703,1.5703,0,0,0,.23154-.38072h.098a1.53214,1.53214,0,0,1-.31059.5065.48453.48453,0,0,1-.31949.17478.22579.22579,0,0,1-.18145-.08015.30257.30257,0,0,1-.0679-.2026,2.93192,2.93192,0,0,1,.138-.5566l.28721-.94845h-.30725l.03117-.098h.305l.20483-.67459h.26717l-.20483.67459Z" transform="translate(-19.763 -5.93188)"/><path class="cls-2" d="M50.128,56.49312a.22489.22489,0,0,1,.069-.16476.22745.22745,0,0,1,.167-.069.23569.23569,0,0,1,.23377.23377.22748.22748,0,0,1-.069.167.23383.23383,0,0,1-.33284-.00111A.2305.2305,0,0,1,50.128,56.49312Z" transform="translate(-19.763 -5.93188)"/><path class="cls-2" d="M54.02985,54.41032a.95354.95354,0,0,1-.31516.66236,8.4144,8.4144,0,0,1-1.11308.84975q-.29535.20351-.59852.423.19555.016.35115.016.61041,0,.73806-.014a.37412.37412,0,0,0,.20743-.08188.85062.85062,0,0,0,.21151-.2992c.01856-.03982.03723-.05986.05591-.05986q.03192,0,.03191.036a1.8571,1.8571,0,0,1-.13568.32307,1.41332,1.41332,0,0,0-.07583.16761,1.594,1.594,0,0,1-.10774.23142q-.375.008-.43489.008-.95345,0-1.19285-.01609l.03587-.09969a.41436.41436,0,0,1,.09178-.15955,1.63048,1.63048,0,0,1,.21547-.16364,11.66135,11.66135,0,0,0,.94955-.71406,2.06741,2.06741,0,0,0,.58246-.69823,1.067,1.067,0,0,0,.10377-.43489.43528.43528,0,0,0-.11169-.31516.40729.40729,0,0,0-.30725-.11577.55514.55514,0,0,0-.4788.2731.37866.37866,0,0,0-.07978.186c0,.01843.00656.02757.01992.02757h.11577a.10055.10055,0,0,1,.07583.04391.1393.1393,0,0,1,.03587.08783.18871.18871,0,0,1-.06185.13964.19843.19843,0,0,1-.14163.05987.181.181,0,0,1-.13371-.05987.19458.19458,0,0,1-.05776-.13964.71241.71241,0,0,1,.2313-.48277.82341.82341,0,0,1,.62649-.24341.70763.70763,0,0,1,.48276.13964A.54093.54093,0,0,1,54.02985,54.41032Z" transform="translate(-19.763 -5.93188)"/><path class="cls-2" d="M56.08459,54.59387a2.37239,2.37239,0,0,1-.23538.99743,2.48718,2.48718,0,0,1-.57455.802,1.07331,1.07331,0,0,1-.71009.33112.46882.46882,0,0,1-.403-.21745.98951.98951,0,0,1-.15165-.57652,2.52391,2.52391,0,0,1,.53866-1.40832,1.2734,1.2734,0,0,1,.99348-.66632.46728.46728,0,0,1,.3989.19543A.90116.90116,0,0,1,56.08459,54.59387Zm-.29117-.3237q0-.35047-.27063-.35053-.39388,0-.80768.89241a5.678,5.678,0,0,0-.3143.88439,2.15388,2.15388,0,0,0-.07558.5498q0,.4065.29043.40632a.51718.51718,0,0,0,.41176-.235,5.47795,5.47795,0,0,0,.766-2.14737Z" transform="translate(-19.763 -5.93188)"/><path class="cls-2" d="M57.7722,53.86386a.65976.65976,0,0,1-.05987.152q-.02392.056-.04786.116l-.806,2.19673a1.97025,1.97025,0,0,0-.07174.21213q0,.08.13161.07594h.28324q.05586,0,.05591.02919,0,.02263-.05183.02263H55.95285q-.04786,0-.04786-.02263,0-.02914.09982-.02919h.20743a.2351.2351,0,0,0,.19147-.072.909.909,0,0,0,.09178-.19975l.6104-1.65026a3.395,3.395,0,0,0,.1796-.55153q0-.07588-.08781-.07594a1.75756,1.75756,0,0,0-.21139.03191.40854.40854,0,0,1-.07187.008c-.02931,0-.0439-.00927-.0439-.028s.06777-.03982.20346-.06382a3.46819,3.46819,0,0,0,.65036-.17156l.02386-.008C57.76416,53.83578,57.7722,53.84519,57.7722,53.86386Z" transform="translate(-19.763 -5.93188)"/><path class="cls-2" d="M60.06627,54.59387a2.3722,2.3722,0,0,1-.23538.99743,2.48734,2.48734,0,0,1-.57453.802,1.07334,1.07334,0,0,1-.71011.33112.46882.46882,0,0,1-.403-.21745.98951.98951,0,0,1-.15165-.57652,2.5239,2.5239,0,0,1,.53866-1.40832,1.2734,1.2734,0,0,1,.99348-.66632.46728.46728,0,0,1,.3989.19543A.90108.90108,0,0,1,60.06627,54.59387Zm-.29116-.3237q0-.35047-.27064-.35053-.39388,0-.80768.89241a5.678,5.678,0,0,0-.31429.88439,2.15332,2.15332,0,0,0-.07558.5498q0,.4065.29041.40632a.51718.51718,0,0,0,.41176-.235,5.47819,5.47819,0,0,0,.766-2.14737Z" transform="translate(-19.763 -5.93188)"/></g><path class="cls-2" d="M52.16543,60.3286A21.7832,21.7832,0,1,1,73.94866,38.5455,21.80791,21.80791,0,0,1,52.16543,60.3286Zm0-43.31308a21.52988,21.52988,0,1,0,21.52992,21.53,21.55443,21.55443,0,0,0-21.52992-21.53Z" transform="translate(-19.763 -5.93188)"/><circle class="cls-2" cx="10.69672" cy="46.45729" r="0.8866"/><path class="cls-3" d="M52.37026,70.78456A32.23909,32.23909,0,1,1,84.60944,38.5455,32.27584,32.27584,0,0,1,52.37026,70.78456Zm0-64.10341A31.86431,31.86431,0,1,0,84.23441,38.5455,31.90048,31.90048,0,0,0,52.37026,6.68115Z" transform="translate(-19.763 -5.93188)"/></svg>